<svg width="90" height="90" viewBox="0 0 90 90" fill="none" xmlns="http://www.w3.org/2000/svg">
<circle cx="53.5" cy="37.5" r="3.5" fill="black"/>
<circle cx="37.5" cy="37.5" r="3.5" fill="black"/>
<path d="M40 50C42.2 52.6667 48.8 52.6667 51 50" stroke="black" stroke-width="4" stroke-linecap="round"/>
<path d="M51 27.5C40 20 27.101 24.0202 24.6764 24.9678M63 50.5C70 39.5 66.0859 27.1713 65.3236 24.9678M40 62.5C51 69.5 62.899 65.9798 65.3236 65.0322M28 39.5C20.5 50.5 23.9141 62.8287 24.6764 65.0322M24.6764 24.9678C27.5896 16.5471 35.5886 10.5 45 10.5C54.4114 10.5 62.4104 16.5471 65.3236 24.9678M24.6764 24.9678C16.6708 28.0968 11 35.8861 11 45C11 54.1139 16.6708 61.9032 24.6764 65.0322M24.6764 65.0322C27.5896 73.4529 35.5886 79.5 45 79.5C54.4114 79.5 62.4104 73.4529 65.3236 65.0322M65.3236 65.0322C73.3292 61.9032 79 54.1139 79 45C79 35.8861 73.3292 28.0968 65.3236 24.9678" stroke="black" stroke-width="5" stroke-linecap="round"/>
</svg>
