<svg width="800" height="800" viewBox="0 0 800 800" fill="none" xmlns="http://www.w3.org/2000/svg">
<g id="im-confused-too" clip-path="url(#clip0_0_1)">
<circle id="outer-badge" cx="400" cy="399" r="395.5" fill="#3F00FF" stroke="white" style="fill:#3F00FF;fill:color(display-p3 0.2471 0.0000 1.0000);fill-opacity:1;stroke:white;stroke-opacity:1;" stroke-width="9"/>
<g id="text">
  <animateTransform
    attributeName="transform"
    attributeType="XML"
    type="rotate"
    from="360 400 400"
    to="0 400 400"
    dur="40s"
    repeatCount="indefinite"
  />
<path id="Vector" d="M273.35 57.3301L287.54 89.6001L278.74 93.4701L273.06 80.5601L268.68 70.0601L268.58 70.1001L271.75 96.5401L263.73 100.07L246.48 79.8201L246.33 79.8801L251.1 90.2101L256.78 103.12L247.98 106.99L233.79 74.7201L247.87 68.5301L258.95 81.9201L263.38 87.6201L263.48 87.5801L262.28 80.4601L259.9 63.2401L273.35 57.3301Z" fill="white" style="fill:white;fill-opacity:1;"/>
<path id="Vector_2" d="M324.87 78.65L314.11 81.83L310.14 75.37L299.84 78.41L299.96 86L289.51 89.09L290.9 51.92L303.45 48.21L324.86 78.65H324.87ZM299.59 71.14L306.46 69.11L299.31 57.52L299.6 71.14H299.59Z" fill="white" style="fill:white;fill-opacity:1;"/>
<path id="Vector_3" d="M336.8 40.7298C342.23 39.7598 346.64 40.5298 350.02 43.0398C353.4 45.5498 355.58 49.5698 356.57 55.1098C357.55 60.6098 356.89 65.1398 354.59 68.6798C352.29 72.2198 348.42 74.4698 342.99 75.4398L327.05 78.2798L320.87 43.5698L336.81 40.7298H336.8ZM340.28 67.8398C342.87 67.3798 344.54 66.2798 345.28 64.5298C346.02 62.7898 346.1 60.3098 345.53 57.0798C344.96 53.8598 344.02 51.5498 342.73 50.1698C341.44 48.7898 339.49 48.3298 336.9 48.7898L333.01 49.4798L336.4 68.5198L340.29 67.8298L340.28 67.8398Z" fill="white" style="fill:white;fill-opacity:1;"/>
<path id="Vector_4" d="M363.97 72.14L361.53 36.97L389.88 35L390.45 43.15L372.97 44.36L373.37 50.06L387.33 49.09L387.86 56.66L373.9 57.63L374.29 63.23L392.46 61.97L393.03 70.12L363.99 72.14H363.97Z" fill="white" style="fill:white;fill-opacity:1;"/>
<path id="Vector_5" d="M424.01 35.9096L422.21 71.1196L411.33 70.5596L413.12 35.3496L424 35.9096H424.01Z" fill="white" style="fill:white;fill-opacity:1;"/>
<path id="Vector_6" d="M465.74 40.7595L460.96 75.6895L449.1 74.0695L441.94 55.4595L440.36 50.4495H440.26L439.53 57.3495L437.46 72.4895L428.04 71.1995L432.82 36.2695L444.62 37.8795L451.78 56.4895L453.41 61.5095H453.46L454.19 54.6095L456.26 39.4695L465.73 40.7595H465.74Z" fill="white" style="fill:white;fill-opacity:1;"/>
<path id="Vector_7" d="M521.69 55.78L515.63 75.32C514.11 80.22 511.66 83.48 508.29 85.1C504.92 86.72 500.63 86.72 495.42 85.1C490.18 83.47 486.63 81.04 484.77 77.79C482.9 74.55 482.73 70.47 484.25 65.58L490.31 46.04L500.77 49.29L494.53 69.39C493.9 71.43 493.86 73.1 494.43 74.39C495 75.68 496.15 76.6 497.88 77.14C499.61 77.68 501.08 77.57 502.28 76.83C503.48 76.08 504.4 74.69 505.03 72.65L511.27 52.55L521.68 55.78H521.69Z" fill="white" style="fill:white;fill-opacity:1;"/>
<path id="Vector_8" d="M539.88 62.9599L526.01 95.3699L515.99 91.0799L529.86 58.6699L539.88 62.9599ZM560.65 71.8499L536.74 84.6799L537.07 82.5499L525.56 88.9499L526.57 80.6099L549.8 67.1899L560.65 71.8299V71.8499ZM544.28 76.9899L547.57 104.6L536.23 99.7499L534.49 79.3699L544.28 76.9899Z" fill="white" style="fill:white;fill-opacity:1;"/>
<path id="Vector_9" d="M613.07 119.32L608.45 126.32L570.57 101.29L575.19 94.29L613.07 119.32Z" fill="white" style="fill:white;fill-opacity:1;"/>
<path id="Vector_10" d="M616.82 151.07L641.18 125.59L654.73 138.55C657.9 141.63 659.7 144.47 660.14 147.08C660.58 149.69 659.72 152.11 657.58 154.35C656.18 155.82 654.53 156.65 652.63 156.86C650.73 157.07 648.71 156.41 646.56 154.9L646.52 154.94C648.36 157.19 649.26 159.34 649.23 161.38C649.2 163.42 648.42 165.24 646.9 166.84C644.78 169.05 642.4 170.01 639.77 169.7C637.13 169.39 634.27 167.76 631.18 164.81L616.82 151.08V151.07ZM629.49 152.98L634.47 157.74C635.47 158.7 636.41 159.21 637.28 159.28C638.15 159.35 638.94 159.01 639.66 158.26C640.37 157.51 640.67 156.71 640.55 155.86C640.43 155.01 639.87 154.1 638.86 153.14L633.88 148.38L629.49 152.97V152.98ZM639.08 142.94L643.48 147.15C645.41 149 647.1 149.16 648.55 147.64C650 146.12 649.76 144.44 647.83 142.59L643.43 138.38L639.07 142.94H639.08Z" fill="white" style="fill:white;fill-opacity:1;"/>
<path id="Vector_11" d="M690.45 178.33L674.76 191.46C670.83 194.75 667 196.16 663.29 195.69C659.58 195.22 655.97 192.9 652.48 188.72C648.96 184.51 647.3 180.54 647.49 176.8C647.68 173.06 649.75 169.55 653.68 166.26L669.37 153.13L676.4 161.53L660.26 175.04C658.62 176.41 657.69 177.79 657.46 179.19C657.23 180.59 657.71 181.98 658.87 183.37C660.03 184.76 661.33 185.47 662.74 185.5C664.15 185.52 665.68 184.85 667.32 183.48L683.46 169.97L690.45 178.33Z" fill="white" style="fill:white;fill-opacity:1;"/>
<path id="Vector_12" d="M713.02 211.5L706.22 216.03L700 206.7L677.46 221.72L671.42 212.65L693.96 197.63L687.68 188.21L694.48 183.68L713.03 211.51L713.02 211.5Z" fill="white" style="fill:white;fill-opacity:1;"/>
<path id="Vector_13" d="M731.74 247.65C733.6 251.62 734.13 255.11 733.33 258.15C732.53 261.18 730.61 263.41 727.58 264.83C724.2 266.42 721.13 266.56 718.39 265.25C715.65 263.94 713.34 261.28 711.47 257.29L710.48 256.57L707.76 250.77L696.69 255.97L692.15 246.3L724.07 231.32L731.74 247.67V247.65ZM717.54 259.51L706.54 276.94L701.48 266.16L711.8 251.82L717.53 259.51H717.54ZM716.87 252.68C717.52 254.07 718.27 254.98 719.13 255.43C719.99 255.87 721.03 255.81 722.25 255.23C723.48 254.66 724.2 253.89 724.42 252.94C724.64 251.99 724.42 250.82 723.78 249.44L721.4 244.36L714.48 247.61L716.86 252.69L716.87 252.68Z" fill="white" style="fill:white;fill-opacity:1;"/>
<path id="Vector_14" d="M718.15 311.01L714.52 300.4L720.8 296.16L717.32 286L709.74 286.45L706.21 276.14L743.41 275.94L747.65 288.32L718.15 311.01ZM724.58 285.43L726.9 292.2L738.17 284.56L724.58 285.43Z" fill="white" style="fill:white;fill-opacity:1;"/>
<path id="Vector_15" d="M755.22 315.36L721.06 324.09L718.36 313.53L752.52 304.8L755.22 315.36Z" fill="white" style="fill:white;fill-opacity:1;"/>
<path id="Vector_16" d="M760.4 338.03C760.98 341.33 761.04 344.33 760.59 347.05C760.14 349.77 759.18 352.25 757.69 354.5L749.98 351.02C751.04 349.21 751.79 347.35 752.23 345.45C752.67 343.55 752.71 341.52 752.34 339.38C752.15 338.29 751.89 337.43 751.57 336.8C751.24 336.17 750.87 335.74 750.45 335.51C750.03 335.28 749.59 335.2 749.13 335.28C748.57 335.38 748.17 335.8 747.94 336.55C747.71 337.3 747.56 338.31 747.49 339.58L747.2 345.05C747 348.7 746.28 351.52 745.02 353.51C743.76 355.5 741.78 356.73 739.08 357.21C736.45 357.67 734.14 357.4 732.16 356.39C730.18 355.38 728.55 353.81 727.27 351.69C725.99 349.56 725.1 347.06 724.6 344.18C724.2 341.9 724.04 339.64 724.12 337.4C724.2 335.16 724.51 333.07 725.06 331.13C725.61 329.19 726.36 327.47 727.33 325.96L735.24 329.35C734.49 330.46 733.88 331.76 733.4 333.25C732.92 334.74 732.6 336.3 732.45 337.92C732.3 339.54 732.35 341.06 732.6 342.5C732.78 343.52 733.02 344.33 733.33 344.95C733.64 345.56 733.99 345.98 734.39 346.2C734.79 346.42 735.23 346.49 735.73 346.4C736.33 346.3 736.77 345.98 737.06 345.46C737.35 344.94 737.52 344.02 737.58 342.71L737.88 336.69C737.97 334.72 738.24 332.87 738.7 331.12C739.16 329.38 739.96 327.91 741.1 326.71C742.25 325.52 743.89 324.73 746.03 324.36C748.31 323.96 750.43 324.22 752.4 325.14C754.37 326.06 756.05 327.61 757.44 329.79C758.83 331.97 759.82 334.71 760.39 338L760.4 338.03Z" fill="white" style="fill:white;fill-opacity:1;"/>
<path id="Vector_17" d="M728.12 363.06L763.29 360.54L765.32 388.89L757.17 389.47L755.92 371.99L750.22 372.4L751.22 386.36L743.65 386.9L742.65 372.94L737.06 373.34L738.36 391.51L730.21 392.1L728.13 363.06H728.12Z" fill="white" style="fill:white;fill-opacity:1;"/>
<path id="Vector_18" d="M764.95 413.09C764.75 418.61 763.07 422.75 759.91 425.53C756.75 428.3 752.35 429.59 746.73 429.39C741.14 429.19 736.86 427.6 733.88 424.6C730.9 421.61 729.51 417.35 729.71 411.84L730.28 395.66L765.52 396.91L764.95 413.09ZM737.71 410.79C737.62 413.42 738.34 415.28 739.89 416.37C741.44 417.46 743.85 418.06 747.12 418.18C750.39 418.3 752.84 417.87 754.46 416.89C756.08 415.91 756.94 414.11 757.03 411.48L757.17 407.53L737.85 406.84L737.71 410.79Z" fill="white" style="fill:white;fill-opacity:1;"/>
<path id="Vector_19" d="M759.52 464.04L724.73 458.34L726.49 447.59L761.28 453.29L759.52 464.04Z" fill="white" style="fill:white;fill-opacity:1;"/>
<path id="Vector_20" d="M750.09 504.97L715.9 496.37L718.82 484.76L738.11 479.7L743.27 478.68L743.3 478.58L736.51 477.09L721.69 473.36L724.01 464.14L758.2 472.74L755.3 484.29L736.01 489.36L730.84 490.43V490.48L737.61 491.97L752.43 495.7L750.1 504.97H750.09Z" fill="white" style="fill:white;fill-opacity:1;"/>
<path id="Vector_21" d="M729.23 558.82L710.41 550.79C705.69 548.78 702.7 546.01 701.44 542.49C700.18 538.97 700.61 534.7 702.75 529.69C704.9 524.65 707.69 521.36 711.11 519.84C714.53 518.32 718.6 518.56 723.31 520.58L742.13 528.61L737.83 538.68L718.47 530.42C716.5 529.58 714.85 529.38 713.5 529.81C712.15 530.24 711.12 531.29 710.41 532.96C709.7 534.63 709.65 536.1 710.27 537.37C710.89 538.64 712.18 539.7 714.15 540.54L733.51 548.8L729.23 558.82Z" fill="white" style="fill:white;fill-opacity:1;"/>
<path id="Vector_22" d="M718.55 579.65C716.91 582.57 715.06 584.94 713 586.76C710.94 588.58 708.62 589.9 706.04 590.7L702.26 583.13C704.22 582.39 705.98 581.43 707.53 580.23C709.08 579.04 710.38 577.49 711.45 575.6C711.99 574.64 712.33 573.81 712.48 573.11C712.63 572.41 712.61 571.84 712.43 571.4C712.25 570.95 711.96 570.62 711.56 570.39C711.06 570.11 710.49 570.19 709.84 570.62C709.19 571.05 708.44 571.74 707.58 572.69L703.9 576.75C701.44 579.45 699.1 581.18 696.86 581.93C694.63 582.68 692.31 582.38 689.92 581.04C687.59 579.73 685.97 578.06 685.08 576.03C684.18 573.99 683.91 571.75 684.26 569.29C684.62 566.83 685.51 564.33 686.94 561.79C688.07 559.77 689.38 557.92 690.85 556.24C692.32 554.56 693.89 553.14 695.54 551.98C697.19 550.82 698.87 549.96 700.56 549.41L704.55 557.04C703.27 557.43 701.97 558.04 700.66 558.9C699.34 559.75 698.12 560.76 696.98 561.92C695.84 563.08 694.91 564.29 694.2 565.57C693.69 566.47 693.37 567.26 693.21 567.93C693.06 568.6 693.07 569.15 693.24 569.57C693.41 569.99 693.71 570.32 694.15 570.57C694.68 570.87 695.22 570.9 695.77 570.68C696.32 570.46 697.04 569.86 697.91 568.88L701.95 564.41C703.26 562.94 704.65 561.67 706.1 560.61C707.55 559.55 709.1 558.91 710.75 558.71C712.4 558.51 714.16 558.94 716.06 560C718.08 561.13 719.56 562.68 720.5 564.64C721.44 566.6 721.77 568.86 721.47 571.43C721.17 574 720.21 576.74 718.57 579.66L718.55 579.65Z" fill="white" style="fill:white;fill-opacity:1;"/>
<path id="Vector_23" d="M647.08 651.45L640.83 645.85L671.13 612.04L677.38 617.64L647.07 651.45H647.08Z" fill="white" style="fill:white;fill-opacity:1;"/>
<path id="Vector_24" d="M577.39 678.65L586.51 672.12L592.38 676.92L601.11 670.67L598.5 663.54L607.36 657.19L618.25 692.76L607.61 700.38L577.4 678.65H577.39ZM603.73 677.46L597.91 681.63L608.47 690.23L603.73 677.46Z" fill="white" style="fill:white;fill-opacity:1;"/>
<path id="Vector_25" d="M563.65 726.73L546.46 695.95L556.91 690.12L573.82 700.68L578.1 703.74L578.19 703.69L574.62 697.73L567.17 684.39L575.47 679.75L592.66 710.53L582.26 716.34L565.35 705.78L561.03 702.75L560.98 702.78L564.55 708.74L572 722.08L563.65 726.74V726.73Z" fill="white" style="fill:white;fill-opacity:1;"/>
<path id="Vector_26" d="M540.02 737.12C534.92 739.24 530.46 739.44 526.62 737.72C522.78 736 519.78 732.54 517.62 727.35C515.47 722.19 515.14 717.63 516.62 713.68C518.1 709.73 521.39 706.69 526.48 704.57L541.42 698.35L554.97 730.9L540.03 737.12H540.02ZM530.76 711.41C528.33 712.42 526.94 713.86 526.59 715.72C526.25 717.58 526.7 720.02 527.96 723.05C529.22 726.08 530.63 728.12 532.19 729.19C533.75 730.26 535.75 730.28 538.18 729.27L541.83 727.75L534.4 709.9L530.75 711.42L530.76 711.41Z" fill="white" style="fill:white;fill-opacity:1;"/>
<path id="Vector_27" d="M461.27 724.58L472.16 721.88L475.84 728.51L486.26 725.93L486.47 718.34L497.05 715.72L494.01 752.79L481.3 755.94L461.26 724.58H461.27ZM486.19 733.22L479.24 734.94L485.87 746.84L486.19 733.22Z" fill="white" style="fill:white;fill-opacity:1;"/>
<path id="Vector_28" d="M449.34 734.36L432.73 736.71L431.59 728.62L458.99 724.74L463.93 759.65L453.14 761.18L449.35 734.36H449.34Z" fill="white" style="fill:white;fill-opacity:1;"/>
<path id="Vector_29" d="M414.64 765.28C411.3 765.42 408.31 765.08 405.67 764.28C403.04 763.48 400.7 762.19 398.67 760.42L403.13 753.23C404.79 754.52 406.53 755.51 408.36 756.2C410.19 756.89 412.19 757.19 414.36 757.1C415.46 757.05 416.35 756.91 417.02 756.67C417.69 756.43 418.16 756.12 418.45 755.73C418.74 755.34 418.87 754.92 418.85 754.46C418.83 753.89 418.46 753.44 417.75 753.11C417.04 752.78 416.06 752.5 414.8 752.27L409.41 751.26C405.82 750.59 403.12 749.49 401.31 747.98C399.5 746.47 398.54 744.34 398.43 741.6C398.32 738.93 398.9 736.68 400.16 734.85C401.42 733.02 403.19 731.61 405.47 730.62C407.75 729.64 410.35 729.08 413.26 728.96C415.57 728.87 417.83 729 420.04 729.38C422.25 729.76 424.28 730.34 426.13 731.14C427.98 731.94 429.59 732.91 430.96 734.07L426.56 741.47C425.56 740.58 424.35 739.8 422.94 739.13C421.52 738.46 420.02 737.94 418.44 737.58C416.86 737.22 415.34 737.07 413.88 737.12C412.85 737.16 412.01 737.3 411.36 737.52C410.71 737.74 410.25 738.04 409.98 738.41C409.71 738.78 409.59 739.21 409.61 739.71C409.63 740.32 409.89 740.79 410.36 741.15C410.84 741.51 411.72 741.8 413.02 742.03L418.94 743.12C420.88 743.47 422.68 743.98 424.35 744.66C426.02 745.34 427.37 746.33 428.4 747.62C429.43 748.91 429.99 750.65 430.08 752.82C430.17 755.13 429.64 757.2 428.46 759.03C427.29 760.86 425.53 762.32 423.19 763.42C420.85 764.51 418 765.13 414.66 765.27L414.64 765.28Z" fill="white" style="fill:white;fill-opacity:1;"/>
<path id="Vector_30" d="M375.37 764.7C371.71 764.45 368.62 763.51 366.11 761.89C363.6 760.27 361.73 758.06 360.52 755.27C359.3 752.47 358.82 749.17 359.09 745.37C359.35 741.57 360.28 738.37 361.87 735.76C363.46 733.16 365.61 731.23 368.32 729.97C371.03 728.71 374.22 728.21 377.88 728.46C381.5 728.71 384.59 729.65 387.14 731.27C389.69 732.89 391.58 735.1 392.81 737.9C394.05 740.7 394.53 744 394.27 747.8C394.01 751.6 393.07 754.8 391.47 757.41C389.86 760.01 387.69 761.94 384.94 763.2C382.19 764.46 379.01 764.96 375.38 764.71L375.37 764.7ZM375.94 756.38C377.4 756.48 378.62 756.2 379.61 755.54C380.6 754.88 381.39 753.85 381.96 752.46C382.53 751.07 382.9 749.26 383.06 747.02C383.21 744.82 383.1 742.98 382.72 741.51C382.34 740.04 381.7 738.9 380.81 738.11C379.92 737.32 378.74 736.87 377.29 736.77C375.87 736.67 374.65 736.95 373.64 737.62C372.63 738.28 371.85 739.32 371.28 740.72C370.72 742.13 370.36 743.93 370.21 746.13C370.06 748.37 370.16 750.21 370.52 751.67C370.88 753.12 371.52 754.25 372.43 755.04C373.34 755.83 374.5 756.28 375.93 756.38H375.94Z" fill="white" style="fill:white;fill-opacity:1;"/>
<path id="Vector_31" d="M323.98 756.94L330.87 722.36L341.56 724.49L334.67 759.07L323.98 756.94Z" fill="white" style="fill:white;fill-opacity:1;"/>
<path id="Vector_32" d="M298.26 750.43C294.04 749.27 291.03 747.4 289.25 744.82C287.47 742.24 287.02 739.34 287.9 736.11C288.89 732.5 290.78 730.09 293.55 728.86C296.32 727.63 299.84 727.601 304.1 728.771L305.29 728.49L311.47 730.19L314.72 718.401L325.02 721.23L315.67 755.23L298.26 750.44V750.43ZM298.48 731.92L292.37 712.23L303.86 715.391L308.06 732.56L298.49 731.92H298.48ZM304.1 735.85C302.62 735.44 301.44 735.421 300.54 735.781C299.65 736.141 299.02 736.981 298.66 738.281C298.3 739.581 298.41 740.63 298.99 741.42C299.57 742.21 300.6 742.801 302.07 743.211L307.48 744.701L309.51 737.331L304.1 735.841V735.85Z" fill="white" style="fill:white;fill-opacity:1;"/>
<path id="Vector_33" d="M267.47 739.99L279.77 706.95L289.98 710.75L277.67 743.79L267.46 739.99H267.47Z" fill="white" style="fill:white;fill-opacity:1;"/>
<path id="Vector_34" d="M245.88 731.31C242.84 729.9 240.33 728.24 238.35 726.33C236.37 724.41 234.88 722.21 233.88 719.7L241.13 715.35C242.02 717.25 243.12 718.93 244.43 720.38C245.74 721.83 247.38 723.01 249.35 723.92C250.35 724.38 251.2 724.66 251.91 724.75C252.61 724.84 253.18 724.78 253.61 724.57C254.04 724.36 254.35 724.04 254.55 723.62C254.79 723.1 254.67 722.54 254.19 721.92C253.71 721.3 252.96 720.61 251.95 719.83L247.62 716.47C244.73 714.23 242.83 712.03 241.91 709.86C240.99 707.69 241.11 705.36 242.26 702.87C243.38 700.45 244.92 698.71 246.88 697.65C248.84 696.59 251.06 696.15 253.53 696.31C256.01 696.48 258.57 697.17 261.22 698.4C263.32 699.37 265.27 700.53 267.06 701.87C268.85 703.21 270.39 704.66 271.67 706.21C272.95 707.76 273.94 709.37 274.62 711.02L267.33 715.59C266.85 714.35 266.13 713.1 265.17 711.86C264.22 710.61 263.12 709.47 261.87 708.42C260.63 707.38 259.34 706.54 258.02 705.93C257.08 705.5 256.27 705.23 255.59 705.13C254.91 705.03 254.37 705.08 253.96 705.29C253.55 705.49 253.24 705.82 253.03 706.27C252.78 706.82 252.78 707.36 253.04 707.89C253.3 708.42 253.96 709.09 255 709.89L259.77 713.57C261.34 714.77 262.7 716.05 263.88 717.41C265.05 718.78 265.8 720.27 266.13 721.9C266.46 723.53 266.17 725.32 265.25 727.29C264.28 729.39 262.85 730.99 260.97 732.08C259.09 733.17 256.86 733.67 254.28 733.57C251.7 733.47 248.88 732.72 245.85 731.32L245.88 731.31Z" fill="white" style="fill:white;fill-opacity:1;"/>
<path id="Vector_35" d="M197 703.64L215.24 673.47L224.61 679.14L206.37 709.31L197 703.64ZM208.19 694.74L212.42 687.75L232.12 699.66L227.89 706.65L208.19 694.74ZM216.15 715.23L234.39 685.06L243.72 690.7L225.48 720.87L216.15 715.23Z" fill="white" style="fill:white;fill-opacity:1;"/>
<path id="Vector_36" d="M149.76 647.8L155.34 641.53L189.26 671.72L183.68 677.99L149.76 647.8Z" fill="white" style="fill:white;fill-opacity:1;"/>
<path id="Vector_37" d="M116.6 629.67L143.69 607.11L150.66 615.48L123.57 638.04L116.6 629.67Z" fill="white" style="fill:white;fill-opacity:1;"/>
<path id="Vector_38" d="M107.5 620.18C106.6 618.98 106.13 617.81 106.09 616.66C106.05 615.51 106.32 614.44 106.91 613.44C107.5 612.44 108.28 611.58 109.24 610.85C110.66 609.78 112.25 609.08 114 608.74C115.75 608.4 117.47 608.37 119.14 608.65C120.82 608.93 122.27 609.43 123.48 610.16L123.63 615.26C122.71 614.75 121.74 614.32 120.72 613.97C119.7 613.62 118.7 613.38 117.71 613.26C116.72 613.13 115.82 613.15 115.01 613.32V613.66C115.24 613.75 115.49 613.88 115.74 614.07C115.99 614.26 116.27 614.55 116.57 614.95C117 615.52 117.28 616.2 117.43 616.98C117.57 617.76 117.52 618.56 117.26 619.38C117.01 620.2 116.45 620.92 115.59 621.57C114.54 622.36 113.51 622.78 112.51 622.81C111.51 622.85 110.57 622.62 109.69 622.12C108.81 621.63 108.07 620.98 107.47 620.18H107.5Z" fill="white" style="fill:white;fill-opacity:1;"/>
<path id="Vector_39" d="M77.4399 571.48L107.55 553.14L112.55 561.35L100.51 568.68L90.6799 574.42L90.7299 574.51L116.52 567.87L121.08 575.35L103.29 595.13L103.37 595.27L112.98 589.17L125.02 581.83L130.02 590.04L99.9099 608.38L91.9099 595.24L103.72 582.48L108.78 577.33L108.72 577.24L101.83 579.37L85.0799 584.01L77.4399 571.46V571.48Z" fill="white" style="fill:white;fill-opacity:1;"/>
<path id="Vector_40" d="M77.5798 508.93C80.2298 508.57 82.5998 508.79 84.6798 509.59C86.7598 510.39 88.5398 511.66 90.0098 513.4C91.4798 515.14 92.6998 517.21 93.6498 519.63C94.9898 523.01 95.4698 526.2 95.1098 529.19C94.7398 532.19 93.5698 534.85 91.5698 537.17C89.5798 539.49 86.8098 541.35 83.2698 542.75C79.7298 544.15 76.4398 544.69 73.3898 544.36C70.3498 544.03 67.6698 542.9 65.3498 540.96C63.0298 539.02 61.2098 536.38 59.8898 533.04C58.9498 530.66 58.4098 528.33 58.2798 526.07C58.1498 523.81 58.4998 521.7 59.3398 519.76C60.1798 517.82 61.6098 516.16 63.6298 514.79L70.6398 522.19C68.6598 523.39 67.5098 524.59 67.1798 525.77C66.8398 526.96 66.9598 528.26 67.5198 529.68C68.0398 531.01 68.8298 532 69.8798 532.68C70.9298 533.36 72.2198 533.67 73.7598 533.62C75.2898 533.57 77.0798 533.14 79.1398 532.33C81.1598 531.53 82.7598 530.64 83.9398 529.65C85.1198 528.66 85.8598 527.57 86.1698 526.35C86.4798 525.14 86.3298 523.77 85.7198 522.25C85.1798 520.89 84.3298 519.91 83.1698 519.29C82.0098 518.68 80.5198 518.56 78.7198 518.93L77.5798 508.93Z" fill="white" style="fill:white;fill-opacity:1;"/>
<path id="Vector_41" d="M47.5501 495.68C46.5901 492.14 46.4601 488.92 47.1601 486.01C47.8601 483.11 49.3401 480.62 51.5801 478.55C53.8201 476.48 56.7801 474.95 60.4601 473.95C64.1401 472.95 67.4701 472.77 70.4501 473.42C73.4301 474.07 75.9601 475.46 78.0401 477.61C80.1201 479.76 81.6401 482.6 82.6001 486.14C83.5501 489.65 83.6801 492.87 82.9901 495.81C82.3001 498.75 80.8301 501.26 78.5901 503.35C76.3501 505.44 73.4001 506.98 69.7201 507.98C66.0401 508.98 62.7101 509.15 59.7301 508.48C56.7501 507.82 54.2101 506.39 52.1201 504.21C50.0301 502.03 48.5101 499.19 47.5601 495.68H47.5501ZM55.5901 493.49C55.9701 494.9 56.6401 495.96 57.5901 496.68C58.5401 497.4 59.7701 497.8 61.2701 497.89C62.7701 497.98 64.6001 497.73 66.7701 497.14C68.9001 496.56 70.6001 495.85 71.8701 495.01C73.1301 494.17 74.0001 493.19 74.4501 492.09C74.9101 490.99 74.9401 489.73 74.5601 488.32C74.1901 486.95 73.5201 485.89 72.5601 485.15C71.6001 484.41 70.3701 484.01 68.8501 483.94C67.3401 483.87 65.5201 484.13 63.3801 484.71C61.2101 485.3 59.5101 486 58.2501 486.82C57.0001 487.64 56.1501 488.61 55.6901 489.73C55.2401 490.85 55.2001 492.1 55.5701 493.47L55.5901 493.49Z" fill="white" style="fill:white;fill-opacity:1;"/>
<path id="Vector_42" d="M36.8599 437.47L71.7299 432.25L73.4999 444.08L57.6499 456.17L53.2799 459.09L53.2999 459.2L60.1399 457.96L75.2499 455.7L76.6599 465.1L41.7899 470.32L40.0299 458.54L55.8799 446.45L60.2399 443.47V443.42L53.3999 444.66L38.2899 446.92L36.8699 437.46L36.8599 437.47Z" fill="white" style="fill:white;fill-opacity:1;"/>
<path id="Vector_43" d="M43.1698 399.37L43.8798 416.82L50.0198 416.57L49.4498 402.59L57.6198 402.26L58.1898 416.24L70.9498 415.72L71.3898 426.61L36.1598 428.04L35.0098 399.7L43.1798 399.37H43.1698Z" fill="white" style="fill:white;fill-opacity:1;"/>
<path id="Vector_44" d="M37.15 360.37L57.57 361.7C62.69 362.03 66.43 363.65 68.79 366.55C71.15 369.45 72.16 373.62 71.81 379.06C71.46 384.53 69.92 388.56 67.2 391.13C64.48 393.7 60.56 394.82 55.45 394.49L35.02 393.15L35.73 382.22L56.73 383.58C58.86 383.72 60.49 383.36 61.62 382.51C62.74 381.66 63.37 380.32 63.48 378.51C63.6 376.7 63.15 375.3 62.15 374.3C61.14 373.31 59.58 372.74 57.44 372.6L36.44 371.24L37.15 360.36V360.37Z" fill="white" style="fill:white;fill-opacity:1;"/>
<path id="Vector_45" d="M40.3001 337.17C40.8701 333.87 41.8301 331.02 43.1701 328.62C44.5101 326.22 46.2601 324.21 48.4201 322.59L54.5001 328.48C52.8901 329.83 51.5601 331.32 50.4901 332.96C49.4301 334.6 48.7101 336.49 48.3401 338.63C48.1501 339.72 48.1001 340.61 48.2001 341.32C48.2901 342.02 48.5001 342.56 48.8201 342.92C49.1401 343.28 49.5201 343.5 49.9801 343.58C50.5401 343.68 51.0601 343.42 51.5301 342.79C52.0001 342.17 52.4801 341.27 52.9801 340.09L55.1101 335.04C56.5301 331.67 58.1701 329.27 60.0301 327.82C61.8901 326.37 64.1701 325.88 66.8701 326.36C69.5001 326.82 71.5801 327.86 73.1001 329.48C74.6301 331.1 75.6301 333.13 76.1101 335.56C76.5901 337.99 76.5801 340.65 76.0801 343.53C75.6801 345.81 75.0701 347.99 74.2401 350.07C73.4101 352.15 72.4101 354.01 71.2301 355.65C70.0601 357.29 68.7601 358.65 67.3501 359.74L61.0501 353.87C62.1301 353.08 63.1501 352.07 64.1001 350.82C65.0601 349.58 65.8801 348.22 66.5701 346.75C67.2601 345.28 67.7301 343.83 67.9801 342.39C68.1601 341.37 68.2101 340.52 68.1301 339.84C68.0501 339.16 67.8601 338.65 67.5601 338.3C67.2601 337.96 66.8601 337.74 66.3701 337.66C65.7701 337.56 65.2501 337.7 64.8001 338.09C64.3501 338.48 63.8801 339.29 63.3801 340.5L61.0601 346.06C60.3101 347.88 59.4201 349.53 58.4101 351.02C57.4001 352.51 56.1401 353.62 54.6601 354.35C53.1801 355.09 51.3701 355.27 49.2201 354.89C46.9401 354.49 45.0301 353.53 43.4901 351.99C41.9501 350.46 40.8901 348.43 40.3201 345.91C39.7501 343.39 39.7501 340.48 40.3201 337.18L40.3001 337.17Z" fill="white" style="fill:white;fill-opacity:1;"/>
<path id="Vector_46" d="M79.2102 324.53L45.2202 315.18L52.7602 287.78L60.6402 289.95L55.9902 306.84L61.5002 308.36L65.2102 294.86L72.5202 296.87L68.8102 310.36L74.2202 311.85L79.0502 294.29L86.9302 296.46L79.2102 324.53Z" fill="white" style="fill:white;fill-opacity:1;"/>
<path id="Vector_47" d="M61.2798 265.08C63.3098 259.95 66.2898 256.61 70.1998 255.05C74.1098 253.5 78.6798 253.76 83.9098 255.83C89.1098 257.89 92.6098 260.83 94.4098 264.64C96.2098 268.46 96.0998 272.93 94.0598 278.06L88.0998 293.11L55.3198 280.12L61.2798 265.07V265.08ZM86.1698 276.38C87.1398 273.93 87.0798 271.93 85.9898 270.39C84.8998 268.85 82.8298 267.47 79.7798 266.26C76.7298 265.05 74.2798 264.64 72.4298 265.01C70.5798 265.39 69.1598 266.8 68.1898 269.25L66.7298 272.93L84.7098 280.05L86.1698 276.37V276.38Z" fill="white" style="fill:white;fill-opacity:1;"/>
<path id="Vector_48" d="M93.7899 201.25L100.85 205.38L95.1899 215.06L118.57 228.73L113.07 238.14L89.6899 224.47L83.9699 234.25L76.9199 230.12L93.7999 201.25H93.7899Z" fill="white" style="fill:white;fill-opacity:1;"/>
<path id="Vector_49" d="M106.33 182.89C108.51 179.94 110.96 177.84 113.67 176.59C116.39 175.34 119.25 174.96 122.26 175.43C125.27 175.91 128.31 177.28 131.38 179.54C134.44 181.81 136.65 184.31 137.99 187.05C139.33 189.79 139.8 192.64 139.41 195.6C139.01 198.56 137.73 201.52 135.55 204.47C133.39 207.39 130.94 209.49 128.21 210.77C125.47 212.05 122.59 212.45 119.57 211.99C116.55 211.53 113.5 210.16 110.44 207.9C107.38 205.64 105.18 203.13 103.85 200.37C102.52 197.62 102.06 194.74 102.48 191.75C102.9 188.76 104.19 185.8 106.34 182.88L106.33 182.89ZM113.03 187.85C112.16 189.03 111.74 190.21 111.77 191.4C111.8 192.59 112.24 193.81 113.1 195.04C113.96 196.27 115.29 197.56 117.1 198.89C118.88 200.2 120.49 201.09 121.93 201.56C123.38 202.03 124.67 202.1 125.82 201.78C126.97 201.46 127.98 200.71 128.84 199.53C129.69 198.38 130.1 197.21 130.09 196C130.08 194.79 129.62 193.57 128.74 192.34C127.86 191.11 126.53 189.84 124.75 188.53C122.95 187.2 121.33 186.29 119.91 185.82C118.49 185.35 117.2 185.28 116.04 185.62C114.88 185.96 113.88 186.7 113.03 187.85Z" fill="white" style="fill:white;fill-opacity:1;"/>
<path id="Vector_50" d="M133.42 150.39C135.93 147.71 138.6 145.91 141.45 144.99C144.29 144.07 147.18 144.02 150.12 144.84C153.06 145.66 155.92 147.38 158.7 149.98C161.48 152.59 163.38 155.33 164.39 158.2C165.4 161.08 165.54 163.96 164.8 166.86C164.06 169.76 162.44 172.54 159.93 175.22C157.44 177.87 154.77 179.67 151.9 180.62C149.03 181.57 146.12 181.64 143.18 180.83C140.23 180.02 137.37 178.31 134.58 175.71C131.8 173.1 129.91 170.36 128.91 167.47C127.91 164.58 127.79 161.67 128.55 158.75C129.31 155.83 130.93 153.04 133.42 150.39ZM139.5 156.09C138.5 157.16 137.95 158.28 137.83 159.47C137.72 160.66 138.02 161.91 138.73 163.24C139.44 164.57 140.61 165.99 142.25 167.53C143.86 169.04 145.36 170.11 146.74 170.75C148.12 171.39 149.4 171.61 150.58 171.42C151.76 171.23 152.84 170.6 153.84 169.54C154.81 168.5 155.36 167.38 155.49 166.18C155.61 164.98 155.31 163.72 154.57 162.39C153.83 161.07 152.66 159.65 151.05 158.14C149.41 156.61 147.92 155.52 146.56 154.89C145.2 154.25 143.93 154.04 142.74 154.24C141.55 154.44 140.47 155.06 139.49 156.1L139.5 156.09Z" fill="white" style="fill:white;fill-opacity:1;"/>
<path id="Vector_51" d="M209.24 104.16L214.23 110.9L177.73 137.9L172.74 131.16L209.24 104.16Z" fill="white" style="fill:white;fill-opacity:1;"/>
</g>
<g id="flag">
<g clip-path="url(#clip1_0_1)">
<rect x="32.5767" y="187.868" width="600" height="600" rx="300" transform="rotate(-15 32.5767 187.868)" fill="white" style="fill:white;fill-opacity:1;"/>
<g id="the-european-kingdom-of-the-union-of-states">
<rect width="1066.37" height="710.916" transform="translate(32.5767 187.868) rotate(-15)" fill="white" style="fill:white;fill-opacity:1;"/>
<rect id="Rectangle 13" x="32.5767" y="187.868" width="1066.37" height="54.6858" transform="rotate(-15 32.5767 187.868)" fill="#FF0026" style="fill:#FF0026;fill:color(display-p3 1.0000 0.0000 0.1500);fill-opacity:1;"/>
<rect id="Rectangle 14" x="46.7305" y="240.69" width="1066.37" height="54.6858" transform="rotate(-15 46.7305 240.69)" fill="white" style="fill:white;fill-opacity:1;"/>
<rect id="Rectangle 15" x="60.8843" y="293.513" width="1066.37" height="54.6858" transform="rotate(-15 60.8843 293.513)" fill="#FF0026" style="fill:#FF0026;fill:color(display-p3 1.0000 0.0000 0.1500);fill-opacity:1;"/>
<rect id="Rectangle 16" x="75.0381" y="346.336" width="1066.37" height="54.6858" transform="rotate(-15 75.0381 346.336)" fill="white" style="fill:white;fill-opacity:1;"/>
<rect id="Rectangle 17" x="89.1914" y="399.158" width="1066.37" height="54.6858" transform="rotate(-15 89.1914 399.158)" fill="#FF0026" style="fill:#FF0026;fill:color(display-p3 1.0000 0.0000 0.1500);fill-opacity:1;"/>
<rect id="Rectangle 18" x="103.345" y="451.98" width="1066.37" height="54.6858" transform="rotate(-15 103.345 451.98)" fill="white" style="fill:white;fill-opacity:1;"/>
<rect id="Rectangle 19" x="117.499" y="504.803" width="1066.37" height="54.6858" transform="rotate(-15 117.499 504.803)" fill="#FF0026" style="fill:#FF0026;fill:color(display-p3 1.0000 0.0000 0.1500);fill-opacity:1;"/>
<rect id="Rectangle 20" x="131.653" y="557.625" width="1066.37" height="54.6858" transform="rotate(-15 131.653 557.625)" fill="white" style="fill:white;fill-opacity:1;"/>
<rect id="Rectangle 21" x="145.807" y="610.447" width="1066.37" height="54.6858" transform="rotate(-15 145.807 610.447)" fill="#FF0026" style="fill:#FF0026;fill:color(display-p3 1.0000 0.0000 0.1500);fill-opacity:1;"/>
<rect id="Rectangle 22" x="159.96" y="663.271" width="1066.37" height="54.6858" transform="rotate(-15 159.96 663.271)" fill="white" style="fill:white;fill-opacity:1;"/>
<rect id="Rectangle 23" x="174.114" y="716.093" width="1066.37" height="54.6858" transform="rotate(-15 174.114 716.093)" fill="#FF0026" style="fill:#FF0026;fill:color(display-p3 1.0000 0.0000 0.1500);fill-opacity:1;"/>
<rect id="Rectangle 24" x="188.268" y="768.915" width="1066.37" height="54.6858" transform="rotate(-15 188.268 768.915)" fill="white" style="fill:white;fill-opacity:1;"/>
<rect id="Rectangle 25" x="202.421" y="821.737" width="1066.37" height="54.6858" transform="rotate(-15 202.421 821.737)" fill="#FF0026" style="fill:#FF0026;fill:color(display-p3 1.0000 0.0000 0.1500);fill-opacity:1;"/>
<g id="Frame 3" clip-path="url(#clip2_0_1)">
<rect width="377.97" height="382.71" transform="translate(32.5767 187.868) rotate(-15)" fill="#3F00FF" style="fill:#3F00FF;fill:color(display-p3 0.2471 0.0000 1.0000);fill-opacity:1;"/>
<g id="Frame 5">
<path id="Star 2" d="M144.197 163.706L155.739 181.48L176.209 175.995L162.873 192.464L174.415 210.238L154.63 202.643L141.293 219.113L142.402 197.949L122.618 190.355L143.088 184.87L144.197 163.706Z" fill="#FFB300" style="fill:#FFB300;fill:color(display-p3 1.0000 0.7000 0.0000);fill-opacity:1;"/>
<path id="Star 4" d="M290.065 124.621L301.607 142.395L322.077 136.91L308.74 153.38L320.283 171.153L300.498 163.558L287.161 180.028L288.27 158.865L268.485 151.27L288.955 145.785L290.065 124.621Z" fill="#FFB300" style="fill:#FFB300;fill:color(display-p3 1.0000 0.7000 0.0000);fill-opacity:1;"/>
<path id="Star 3" d="M88.7897 261.085L100.332 278.859L120.802 273.374L107.465 289.843L119.008 307.617L99.2228 300.022L85.886 316.492L86.9951 295.328L67.2103 287.734L87.6806 282.249L88.7897 261.085Z" fill="#FFB300" style="fill:#FFB300;fill:color(display-p3 1.0000 0.7000 0.0000);fill-opacity:1;"/>
<g id="Group 3">
<path id="Star 2_2" d="M225.279 466.308L236.821 484.081L257.291 478.596L243.955 495.066L255.497 512.839L235.712 505.245L222.375 521.714L223.484 500.551L203.7 492.956L224.17 487.471L225.279 466.308Z" fill="#FFB300" style="fill:#FFB300;fill:color(display-p3 1.0000 0.7000 0.0000);fill-opacity:1;"/>
<path id="Star 4_2" d="M371.147 427.223L382.689 444.996L403.159 439.511L389.822 455.981L401.365 473.755L381.58 466.16L368.243 482.629L369.352 461.466L349.567 453.871L370.038 448.386L371.147 427.223Z" fill="#FFB300" style="fill:#FFB300;fill:color(display-p3 1.0000 0.7000 0.0000);fill-opacity:1;"/>
<path id="Star 3_2" d="M128.605 409.678L140.147 427.452L160.618 421.967L147.281 438.436L158.823 456.21L139.038 448.615L125.701 465.085L126.811 443.921L107.026 436.326L127.496 430.841L128.605 409.678Z" fill="#FFB300" style="fill:#FFB300;fill:color(display-p3 1.0000 0.7000 0.0000);fill-opacity:1;"/>
<path id="Star 5" d="M426.553 329.843L438.096 347.617L458.566 342.132L445.229 358.601L456.771 376.375L436.986 368.78L423.65 385.25L424.759 364.086L404.974 356.492L425.444 351.006L426.553 329.843Z" fill="#FFB300" style="fill:#FFB300;fill:color(display-p3 1.0000 0.7000 0.0000);fill-opacity:1;"/>
</g>
<path id="Star 5_2" d="M386.738 181.25L398.28 199.024L418.75 193.539L405.414 210.008L416.956 227.782L397.171 220.187L383.834 236.657L384.943 215.493L365.159 207.899L385.629 202.414L386.738 181.25Z" fill="#FFB300" style="fill:#FFB300;fill:color(display-p3 1.0000 0.7000 0.0000);fill-opacity:1;"/>
</g>
<path id="Vector 1" d="M32.5767 187.868L264.648 323.79M496.72 459.711L264.648 323.79M264.648 323.79L397.668 90.0423M264.648 323.79L131.629 557.537" stroke="white" style="stroke:white;stroke-opacity:1;" stroke-width="48.5792"/>
<path id="Vector 2" d="M32.5767 187.868L264.648 323.79M496.72 459.711L264.648 323.79M264.648 323.79L397.668 90.0423M264.648 323.79L131.629 557.537" stroke="#FF0026" style="stroke:#FF0026;stroke:color(display-p3 1.0000 0.0000 0.1500);stroke-opacity:1;" stroke-width="13.0335"/>
<g id="Union">
<mask id="path-78-outside-1_0_1" maskUnits="userSpaceOnUse" x="12.9807" y="70.4387" width="503.439" height="506.975" fill="black">
<rect fill="white" x="12.9807" y="70.4387" width="503.439" height="506.975"/>
<path fill-rule="evenodd" clip-rule="evenodd" d="M245.363 357.109L287.851 515.678L340.498 501.571L298.009 343.003L454.232 301.143L440.125 248.496L283.903 290.356L241.445 131.902L188.799 146.009L231.256 304.463L75.0343 346.322L89.1409 398.969L245.363 357.109Z"/>
</mask>
<path fill-rule="evenodd" clip-rule="evenodd" d="M245.363 357.109L287.851 515.678L340.498 501.571L298.009 343.003L454.232 301.143L440.125 248.496L283.903 290.356L241.445 131.902L188.799 146.009L231.256 304.463L75.0343 346.322L89.1409 398.969L245.363 357.109Z" fill="#FF0026" style="fill:#FF0026;fill:color(display-p3 1.0000 0.0000 0.1500);fill-opacity:1;"/>
<path d="M287.851 515.678L272.973 519.664L276.959 534.543L291.838 530.556L287.851 515.678ZM245.363 357.109L260.241 353.122L256.255 338.244L241.376 342.231L245.363 357.109ZM340.498 501.571L344.484 516.449L359.363 512.463L355.376 497.584L340.498 501.571ZM298.009 343.003L294.023 328.124L279.144 332.111L283.131 346.989L298.009 343.003ZM454.232 301.143L458.219 316.021L473.097 312.034L469.11 297.156L454.232 301.143ZM440.125 248.496L455.004 244.51L451.017 229.631L436.139 233.618L440.125 248.496ZM283.903 290.356L269.024 294.343L273.011 309.221L287.889 305.234L283.903 290.356ZM241.445 131.902L256.323 127.915L252.337 113.037L237.458 117.024L241.445 131.902ZM188.799 146.009L184.812 131.13L169.934 135.117L173.92 149.995L188.799 146.009ZM231.256 304.463L235.243 319.341L250.121 315.354L246.135 300.476L231.256 304.463ZM75.0343 346.322L71.0477 331.444L56.1693 335.431L60.156 350.309L75.0343 346.322ZM89.1409 398.969L74.2625 402.955L78.2492 417.834L93.1275 413.847L89.1409 398.969ZM302.729 511.691L260.241 353.122L230.485 361.096L272.973 519.664L302.729 511.691ZM336.511 486.693L283.865 500.799L291.838 530.556L344.484 516.449L336.511 486.693ZM283.131 346.989L325.619 505.558L355.376 497.584L312.888 339.016L283.131 346.989ZM450.245 286.264L294.023 328.124L301.996 357.881L458.219 316.021L450.245 286.264ZM425.247 252.483L439.354 305.129L469.11 297.156L455.004 244.51L425.247 252.483ZM287.889 305.234L444.112 263.375L436.139 233.618L279.916 275.478L287.889 305.234ZM226.567 135.889L269.024 294.343L298.781 286.37L256.323 127.915L226.567 135.889ZM192.785 160.887L245.432 146.78L237.458 117.024L184.812 131.13L192.785 160.887ZM246.135 300.476L203.677 142.022L173.92 149.995L216.378 308.449L246.135 300.476ZM79.0209 361.201L235.243 319.341L227.27 289.584L71.0477 331.444L79.0209 361.201ZM104.019 394.982L89.9126 342.336L60.156 350.309L74.2625 402.955L104.019 394.982ZM241.376 342.231L85.1542 384.09L93.1275 413.847L249.349 371.987L241.376 342.231Z" fill="white" style="fill:white;fill-opacity:1;" mask="url(#path-78-outside-1_0_1)"/>
</g>
</g>
</g>
</g>
<rect x="27.0653" y="184.686" width="609" height="609" rx="304.5" transform="rotate(-15 27.0653 184.686)" stroke="white" style="stroke:white;stroke-opacity:1;" stroke-width="9"/>
</g>
</g>
<defs>
<clipPath id="clip0_0_1">
<rect width="800" height="800" fill="white" style="fill:white;fill-opacity:1;"/>
</clipPath>
<clipPath id="clip1_0_1">
<rect x="32.5767" y="187.868" width="600" height="600" rx="300" transform="rotate(-15 32.5767 187.868)" fill="white" style="fill:white;fill-opacity:1;"/>
</clipPath>
<clipPath id="clip2_0_1">
<rect width="377.97" height="382.71" fill="white" style="fill:white;fill-opacity:1;" transform="translate(32.5767 187.868) rotate(-15)"/>
</clipPath>
</defs>
</svg>
