<?xml version="1.0" encoding="utf-8"?>
<!-- Generator: Adobe Illustrator 18.1.1, SVG Export Plug-In . SVG Version: 6.00 Build 0)  -->
<svg version="1.1" id="Layer_1" xmlns="http://www.w3.org/2000/svg" xmlns:xlink="http://www.w3.org/1999/xlink" x="0px" y="0px"
	 viewBox="0 0 72 69" enable-background="new 0 0 72 69" xml:space="preserve">
<path fill="#FFFFFF" d="M40.9,3.6l5,15.3c0.7,2.1,2.7,3.6,4.9,3.6h16c5,0,7.1,6.4,3,9.3l-13,9.4c-1.8,1.3-2.6,3.6-1.9,5.8l5,15.2
	c1.5,4.8-3.9,8.7-7.9,5.8l-13-9.4c-1.8-1.3-4.3-1.3-6.1,0L20,68c-4,2.9-9.5-1-7.9-5.8l5-15.2c0.7-2.1-0.1-4.5-1.9-5.8l-13-9.4
	c-4.1-2.9-2-9.3,3-9.3h16c2.2,0,4.2-1.4,4.9-3.6l5-15.3C32.6-1.2,39.4-1.2,40.9,3.6z"/>
</svg>
